<svg xmlns="http://www.w3.org/2000/svg" shape-rendering="geometricPrecision" text-rendering="geometricPrecision" image-rendering="optimizeQuality" fill-rule="evenodd" clip-rule="evenodd" viewBox="0 0 512 356.618"><path d="M31.179 0H480.82C497.972 0 512 14.028 512 31.182v294.257c0 17.151-14.028 31.179-31.18 31.179H31.179C14.028 356.618 0 342.59 0 325.439V31.182C0 14.028 14.028 0 31.179 0zM56.11 194.421c0-28.707 11.639-54.7 30.451-73.515 18.814-18.812 44.807-30.451 73.514-30.451 21.077 0 40.685 6.274 57.07 17.052l-10.471 9.365a89.941 89.941 0 00-40.929-12.733v11.993h-16.401v-11.537c-17.969 2.125-34.321 9.511-47.476 20.577l8.988 8.987-11.531 11.593-8.972-8.971c-12.95 15.651-20.736 35.736-20.736 57.64H56.11zm248.377-2.479h10.04v-76.795a2.412 2.412 0 012.408-2.405h24.887a2.412 2.412 0 012.407 2.405v76.795h18.269V98.29a2.411 2.411 0 012.407-2.404h24.875a2.41 2.41 0 012.407 2.404v93.652h18.27v-46.825c0-1.325 1.081-2.419 2.404-2.419h24.89a2.411 2.411 0 012.407 2.407v46.837h8.978v9.102H304.487v-9.102zM59.474 235.126h393.052v14.444H59.474v-14.444zm0 42.986h348.034v15.422H59.474v-15.422zm179.767-151.081c15.462 18.148 24.8 41.682 24.8 67.39h-13.508c0-21.448-7.469-41.156-19.939-56.662l8.647-10.728zM36.595 57.637h438.813c9.685 0 17.607 7.925 17.607 17.609v243.968c0 9.688-7.922 17.607-17.607 17.607H36.595c-9.685 0-17.607-7.919-17.607-17.607V75.246c0-9.684 7.922-17.609 17.607-17.609z"/><path fill="#EF1C25" d="M234.063 105.745l-83.197 74.405c-15.799 13.054 5.333 35.025 19.59 16.321l69.185-85.836-5.578-4.89z"/></svg>