<?xml version="1.0" encoding="iso-8859-1"?>
<!-- Generator: Adobe Illustrator 19.0.0, SVG Export Plug-In . SVG Version: 6.00 Build 0)  -->
<svg xmlns="http://www.w3.org/2000/svg" xmlns:xlink="http://www.w3.org/1999/xlink" version="1.1" id="Layer_1" x="0px" y="0px" viewBox="0 0 511.999 511.999" style="enable-background:new 0 0 511.999 511.999;" xml:space="preserve">
<path style="fill:#9EA8B2;" d="M320.698,324.797h-15.544l-25.666,46.322l-23.364-15.209l-23.366,15.209l-25.663-46.322h-15.547  c-26.749,0-48.43,21.683-48.43,48.43v46.09c32.074,22.242,70.98,35.294,112.882,35.294c42.007,0,81.005-13.114,113.128-35.457  v-45.927C369.129,346.48,347.448,324.797,320.698,324.797z"/>
<g style="opacity:0.1;">
	<path style="fill:#231F20;" d="M167.991,373.227c0-23.716,17.05-43.436,39.56-47.605l-0.457-0.825h-15.546   c-26.749,0-48.43,21.683-48.43,48.43v46.09c7.896,5.475,16.207,10.391,24.873,14.695V373.227z"/>
</g>
<g>
	<polygon style="fill:#C3CAD1;" points="231.252,315.721 256.125,355.91 232.758,371.119 206.905,324.459  "/>
	<polygon style="fill:#C3CAD1;" points="280.997,315.721 256.125,355.91 279.489,371.119 305.342,324.459  "/>
</g>
<polygon style="fill:#5D6A7C;" points="240.334,366.187 256.125,392.466 271.913,366.187 256.125,355.91 "/>
<path style="fill:#77614A;" d="M195.442,196.534c1.792,0,3.53,0.225,5.205,0.616v-7.296c53.24,11.697,84.192-21.835,84.192-21.835  l26.762,21.835v7.296c1.675-0.391,3.413-0.616,5.205-0.616c5.826,0,11.128,2.192,15.169,5.777v-24.416  c0-39.428-31.965-71.39-71.391-71.39h-8.923c-39.426,0-71.39,31.963-71.39,71.39v24.414  C184.313,198.726,189.615,196.534,195.442,196.534z"/>
<g style="opacity:0.1;">
	<path style="fill:#231F20;" d="M205.616,177.895c0-36.648,27.625-66.831,63.179-70.905c-2.696-0.309-5.432-0.485-8.21-0.485h-8.923   c-39.426,0-71.39,31.963-71.39,71.39v24.414c4.042-3.583,9.344-5.775,15.169-5.775c1.792,0,3.53,0.225,5.205,0.616v-7.296   c1.679,0.369,3.335,0.693,4.969,0.974V177.895z"/>
</g>
<path style="fill:#FCCF8B;" d="M200.647,189.854v59.427c0,29.809,24.168,53.972,53.97,53.972h3.011  c29.804,0,53.973-24.164,53.973-53.972v-59.427l-26.762-21.835C284.839,168.019,253.886,201.551,200.647,189.854z"/>
<g style="opacity:0.1;">
	<path style="fill:#231F20;" d="M226.039,249.281v-57.004c-7.779,0.259-16.257-0.417-25.392-2.424v59.427   c0,29.809,24.168,53.972,53.97,53.972h3.011c3.838,0,7.579-0.407,11.191-1.17C244.385,296.93,226.039,275.251,226.039,249.281z"/>
</g>
<g>
	<path style="fill:#EAB875;" d="M200.647,197.15c-1.675-0.391-3.413-0.616-5.205-0.616c-12.649,0-22.906,10.255-22.906,22.904   s10.256,22.904,22.906,22.904c1.792,0,3.53-0.227,5.205-0.616L200.647,197.15L200.647,197.15z"/>
	<path style="fill:#EAB875;" d="M311.601,197.15c1.675-0.391,3.413-0.616,5.205-0.616c12.649,0,22.904,10.255,22.904,22.904   s-10.255,22.904-22.904,22.904c-1.792,0-3.53-0.227-5.205-0.616V197.15z"/>
	<path style="fill:#EAB875;" d="M280.997,315.721l-4.126-16.013c-5.98,2.283-12.463,3.545-19.244,3.545h-3.011   c-6.781,0-13.262-1.262-19.24-3.545l-4.124,16.013l0,0l24.873,40.19L280.997,315.721L280.997,315.721z"/>
</g>
<path style="fill:#5D6A7C;" d="M437.502,401.761c22.063-27.424,38.051-59.933,45.905-95.461h-35.254  C425.823,391.538,348.141,454.612,256,454.612c-90.331,0-166.757-60.622-190.765-143.315l27.616-10.54l-70.477-57.401L8.079,333.118  l25.047-9.562C62.151,419.129,151.069,488.892,256,488.892c64.46,0,122.884-26.326,165.089-68.79"/>
<path style="fill:#6AC6D8;" d="M74.497,110.238c-22.063,27.424-38.053,59.933-45.905,95.461h35.254  C86.176,120.46,163.857,57.387,255.998,57.387c90.331,0,166.757,60.622,190.765,143.315l-27.616,10.54l70.477,57.401l14.297-89.764  l-25.047,9.562C449.847,92.87,360.93,23.105,255.998,23.105c-64.462,0-122.884,26.326-165.089,68.79"/>
<g>
	<path style="fill:#231F20;" d="M483.407,298.221h-35.254c-3.673,0-6.884,2.479-7.815,6.032   c-10.426,39.797-33.013,73.886-63.131,98.715v-29.741c0-31.159-25.35-56.509-56.509-56.509h-13.006l-19.939-7.157l-1.37-5.32   c19.494-10.241,32.898-30.54,33.272-53.958c15.753-1.443,28.133-14.723,28.133-30.846c0-7.83-2.926-14.986-7.734-20.446v-21.095   c0-43.82-35.65-79.469-79.47-79.469h-8.923c-43.82,0-79.469,35.65-79.469,79.469v21.093c-4.81,5.46-7.737,12.617-7.737,20.449   c0,16.124,12.381,29.402,28.136,30.846c0.374,23.42,13.779,43.72,33.273,53.959l-1.369,5.318l-19.941,7.157h-13.005   c-31.159,0-56.509,25.35-56.509,56.509v29.658c-27.163-22.341-48.287-52.137-59.833-86.746l20.527-7.835   c2.695-1.029,4.637-3.417,5.095-6.265c0.458-2.848-0.639-5.725-2.875-7.547l-70.477-57.401c-2.241-1.825-5.286-2.314-7.983-1.283   c-2.699,1.031-4.643,3.424-5.096,6.277L0.101,331.848c-0.455,2.849,0.646,5.724,2.886,7.543c2.241,1.819,5.28,2.305,7.973,1.276   l17.104-6.53c15.545,45.107,44.838,85.474,83.171,114.379c42.041,31.701,92.101,48.456,144.766,48.456   c64.537,0,125.203-25.277,170.818-71.174c3.145-3.165,3.129-8.281-0.034-11.425c-3.163-3.144-8.278-3.129-11.425,0.034   c-42.562,42.823-99.156,66.407-159.359,66.407c-98.135,0-186.604-65.632-215.144-159.605c-0.651-2.144-2.164-3.921-4.176-4.908   c-2.012-0.987-4.343-1.092-6.436-0.292l-11.989,4.577l9.893-62.11l48.764,39.717l-14.557,5.556c-3.927,1.499-6.05,5.762-4.877,9.8   c12.227,42.117,38.283,80.058,73.366,106.837c32.021,24.44,69.517,38.698,109.26,41.699c0.21,0.016,0.42,0.029,0.63,0.044   c1.074,0.078,2.149,0.152,3.226,0.213c0.423,0.025,0.848,0.042,1.271,0.065c0.888,0.045,1.775,0.092,2.666,0.126   c0.693,0.027,1.387,0.043,2.081,0.063c0.644,0.018,1.288,0.042,1.934,0.055c1.361,0.027,2.723,0.041,4.088,0.041   c1.387,0,2.774-0.015,4.158-0.043c0.36-0.008,0.719-0.022,1.077-0.03c1.04-0.026,2.078-0.055,3.114-0.097   c0.358-0.014,0.714-0.034,1.071-0.051c1.053-0.047,2.106-0.099,3.156-0.163c0.296-0.018,0.591-0.04,0.888-0.059   c1.131-0.073,2.261-0.153,3.389-0.245c0.201-0.016,0.402-0.034,0.603-0.052c1.247-0.104,2.494-0.22,3.737-0.347   c0.078-0.008,0.155-0.016,0.233-0.024c22.112-2.284,43.558-8.097,63.685-17.237c0.109-0.05,0.218-0.099,0.327-0.149   c0.983-0.449,1.965-0.905,2.941-1.369c0.433-0.205,0.865-0.413,1.296-0.62c0.612-0.296,1.223-0.595,1.831-0.897   c0.773-0.382,1.545-0.77,2.313-1.162c0.222-0.113,0.444-0.227,0.665-0.343c49.186-25.321,87.479-69.97,103.804-125.424h18.816   c-8.058,29.833-22.429,58.116-41.901,82.318c-2.797,3.476-2.246,8.562,1.231,11.359c3.477,2.796,8.563,2.246,11.359-1.23   c23.149-28.772,39.573-62.93,47.499-98.781c0.528-2.391-0.056-4.894-1.589-6.803C488.173,299.332,485.856,298.221,483.407,298.221z    M227.824,325.535l17.274,27.912l-9.171,5.97c-0.003,0.002-0.006,0.004-0.01,0.008l-0.295,0.193l-17.044-30.763L227.824,325.535z    M256.125,365.551l4.85,3.157l-4.85,8.072l-4.851-8.072L256.125,365.551z M276.627,359.617l-9.476-6.168l17.275-27.913l9.245,3.319   L276.627,359.617z M319.68,233.982v-29.076c2.551,0.511,4.947,1.687,6.935,3.449c0.037,0.032,0.075,0.059,0.113,0.09   c3.004,2.715,4.903,6.632,4.903,10.992C331.63,226.629,326.484,232.641,319.68,233.982z M188.352,177.895   c0-34.91,28.401-63.311,63.311-63.311h8.923c34.91,0,63.312,28.401,63.312,63.311v11.385c-0.025-0.005-0.05-0.009-0.074-0.015   c-0.673-0.156-1.353-0.294-2.041-0.406c-0.013-0.002-0.025-0.004-0.037-0.006c-0.679-0.109-1.365-0.195-2.057-0.26   c-0.036-0.003-0.071-0.01-0.108-0.013c-0.017-0.11-0.045-0.218-0.068-0.326c-0.018-0.092-0.036-0.184-0.057-0.275   c-0.052-0.214-0.113-0.426-0.181-0.636c-0.017-0.052-0.029-0.104-0.047-0.155c-0.09-0.259-0.195-0.511-0.31-0.758   c-0.03-0.066-0.067-0.127-0.099-0.192c-0.091-0.181-0.186-0.36-0.29-0.533c-0.05-0.082-0.101-0.162-0.154-0.241   c-0.099-0.153-0.204-0.303-0.313-0.449c-0.059-0.079-0.118-0.157-0.181-0.234c-0.12-0.149-0.247-0.291-0.378-0.432   c-0.059-0.064-0.115-0.129-0.177-0.191c-0.196-0.197-0.4-0.387-0.617-0.563l-26.762-21.835c-3.267-2.666-8.019-2.361-10.927,0.665   c-0.031,0.031-0.065,0.059-0.095,0.092c-0.204,0.218-20.804,21.737-56.06,21.737c-6.681,0-13.573-0.77-20.485-2.289   c-2.389-0.526-4.889,0.061-6.796,1.594c-0.22,0.177-0.426,0.366-0.624,0.562c-0.065,0.065-0.124,0.132-0.186,0.198   c-0.129,0.138-0.256,0.278-0.375,0.424c-0.066,0.08-0.128,0.162-0.19,0.243c-0.109,0.143-0.212,0.291-0.31,0.442   c-0.055,0.084-0.11,0.167-0.162,0.252c-0.102,0.17-0.196,0.344-0.285,0.52c-0.036,0.07-0.074,0.138-0.108,0.208   c-0.117,0.249-0.223,0.502-0.315,0.762c-0.017,0.048-0.029,0.099-0.045,0.148c-0.071,0.213-0.134,0.429-0.186,0.648   c-0.022,0.092-0.039,0.184-0.057,0.277c-0.023,0.112-0.052,0.223-0.07,0.336c-0.036,0.003-0.071,0.01-0.107,0.013   c-0.693,0.065-1.38,0.151-2.059,0.26c-0.011,0.002-0.022,0.004-0.032,0.005c-0.692,0.112-1.373,0.251-2.049,0.407   c-0.023,0.005-0.047,0.009-0.07,0.014L188.352,177.895L188.352,177.895z M180.615,219.437c0-4.375,1.912-8.304,4.935-11.02   c0.026-0.023,0.056-0.039,0.082-0.062c1.987-1.762,4.384-2.939,6.935-3.449v29.076   C185.763,232.641,180.615,226.629,180.615,219.437z M208.726,249.281v-7.558v-42.256c0.68,0.089,1.357,0.158,2.036,0.235   c0.464,0.053,0.93,0.114,1.394,0.16c0.753,0.075,1.504,0.131,2.255,0.192c0.446,0.036,0.893,0.081,1.338,0.111   c0.814,0.055,1.626,0.089,2.437,0.125c0.378,0.017,0.757,0.044,1.134,0.057c1.186,0.04,2.369,0.061,3.545,0.061   c31.256,0,52.669-13.906,62.25-21.739l18.407,15.017v3.461v44.574v7.558c0,19.66-12.431,36.468-29.844,42.99   c-0.315,0.117-0.631,0.227-0.948,0.337c-0.358,0.125-0.716,0.249-1.078,0.365c-0.339,0.109-0.681,0.211-1.022,0.312   c-0.354,0.104-0.711,0.208-1.069,0.304c-0.34,0.092-0.682,0.179-1.024,0.263c-0.372,0.092-0.745,0.178-1.121,0.26   c-0.332,0.072-0.664,0.142-0.996,0.207c-0.397,0.078-0.798,0.148-1.2,0.214c-0.317,0.053-0.633,0.107-0.951,0.153   c-0.432,0.063-0.867,0.115-1.303,0.166c-0.294,0.034-0.587,0.072-0.882,0.1c-0.489,0.047-0.982,0.081-1.476,0.113   c-0.247,0.016-0.493,0.039-0.74,0.051c-0.742,0.036-1.488,0.057-2.238,0.057h-3.011c-0.751,0-1.495-0.022-2.237-0.057   c-0.251-0.012-0.5-0.034-0.75-0.051c-0.489-0.031-0.977-0.065-1.462-0.112c-0.302-0.029-0.601-0.068-0.902-0.103   c-0.428-0.05-0.855-0.101-1.279-0.163c-0.327-0.047-0.654-0.102-0.98-0.157c-0.389-0.066-0.778-0.134-1.163-0.208   c-0.346-0.068-0.692-0.14-1.036-0.215c-0.359-0.079-0.716-0.162-1.073-0.248c-0.359-0.087-0.716-0.179-1.074-0.275   c-0.337-0.092-0.673-0.189-1.007-0.287c-0.362-0.107-0.724-0.215-1.084-0.331c-0.336-0.109-0.669-0.224-1.002-0.339   c-0.341-0.118-0.683-0.237-1.022-0.364C221.145,285.734,208.726,268.934,208.726,249.281z M243.569,310.328   c0.397,0.072,0.793,0.15,1.192,0.213c0.693,0.111,1.392,0.2,2.091,0.288c0.39,0.05,0.778,0.108,1.169,0.149   c0.753,0.08,1.513,0.135,2.274,0.186c0.337,0.024,0.673,0.059,1.011,0.078c1.097,0.058,2.2,0.091,3.311,0.091h3.011   c1.111,0,2.214-0.032,3.31-0.091c0.345-0.018,0.686-0.055,1.031-0.079c0.754-0.053,1.507-0.106,2.254-0.185   c0.397-0.042,0.793-0.101,1.189-0.152c0.693-0.087,1.385-0.176,2.071-0.285c0.403-0.065,0.803-0.143,1.203-0.215   c0.681-0.123,1.359-0.25,2.033-0.395c0.141-0.03,0.283-0.052,0.424-0.083l1.173,4.55l-16.189,26.159l-5.556-8.977l-10.633-17.18   l1.172-4.55c0.14,0.031,0.283,0.052,0.423,0.082C242.206,310.077,242.886,310.204,243.569,310.328z M151.198,373.227   c0-22.25,18.101-40.351,40.351-40.351h10.784l23.358,42.159c1.087,1.962,2.94,3.383,5.116,3.925   c0.299,0.074,0.602,0.127,0.906,0.167c0.097,0.013,0.194,0.017,0.292,0.026c0.207,0.019,0.413,0.034,0.619,0.038   c0.045,0.001,0.089,0.009,0.134,0.009c0.057,0,0.113-0.011,0.171-0.012c0.273-0.005,0.543-0.026,0.812-0.058   c0.083-0.01,0.165-0.016,0.248-0.029c0.336-0.052,0.669-0.124,0.996-0.218c0.073-0.021,0.143-0.048,0.217-0.071   c0.265-0.084,0.525-0.181,0.78-0.293c0.089-0.039,0.178-0.078,0.266-0.12c0.315-0.151,0.623-0.315,0.919-0.506l0.557-0.363   l11.477,19.099c1.461,2.431,4.089,3.918,6.925,3.918c2.836,0,5.465-1.488,6.925-3.919l11.474-19.099l0.557,0.362   c0.295,0.192,0.603,0.355,0.918,0.506c0.088,0.043,0.179,0.082,0.268,0.121c0.254,0.111,0.513,0.208,0.777,0.292   c0.073,0.024,0.145,0.052,0.219,0.072c0.326,0.094,0.658,0.166,0.993,0.218c0.084,0.013,0.168,0.019,0.252,0.029   c0.268,0.033,0.538,0.053,0.808,0.058c0.057,0.001,0.114,0.013,0.172,0.013c0.045,0,0.089-0.008,0.135-0.009   c0.206-0.003,0.411-0.018,0.618-0.038c0.098-0.01,0.195-0.014,0.293-0.026c0.304-0.04,0.606-0.093,0.906-0.167   c2.176-0.542,4.029-1.963,5.116-3.925l23.359-42.159h10.784c22.25,0,40.351,18.101,40.351,40.351v41.649   c-7.317,4.857-14.913,9.17-22.733,12.936c-0.642,0.308-1.283,0.619-1.928,0.921c-0.196,0.092-0.394,0.18-0.59,0.271   c-0.212,0.098-0.427,0.192-0.639,0.289v-49.541c0-4.463-3.616-8.079-8.079-8.079c-4.462,0-8.079,3.616-8.079,8.079v56.058   c-14.883,5.222-30.545,8.642-46.697,10.023c-0.173,0.015-0.347,0.028-0.521,0.043c-1.064,0.088-2.13,0.166-3.198,0.236   c-0.306,0.02-0.613,0.04-0.92,0.059c-0.95,0.058-1.902,0.107-2.855,0.151c-0.367,0.017-0.735,0.036-1.102,0.051   c-0.933,0.038-1.869,0.065-2.805,0.088c-0.358,0.009-0.715,0.023-1.074,0.029c-1.273,0.026-2.55,0.041-3.827,0.041   c-1.248,0-2.495-0.013-3.739-0.038c-0.182-0.003-0.364-0.011-0.547-0.015c-1.107-0.025-2.214-0.056-3.317-0.101   c-0.045-0.002-0.092-0.004-0.137-0.006c-19.039-0.784-37.544-4.446-55.011-10.605v-56.013c0-4.463-3.617-8.079-8.079-8.079   c-4.463,0-8.079,3.616-8.079,8.079v49.465c-9.002-4.132-17.659-8.948-25.893-14.394v-41.599H151.198z"/>
	<path style="fill:#231F20;" d="M509.013,172.608c-2.24-1.818-5.279-2.305-7.974-1.276l-17.104,6.53   c-15.545-45.107-44.838-85.474-83.171-114.379c-42.041-31.701-92.101-48.456-144.766-48.456   c-64.537,0-125.203,25.277-170.818,71.174c-3.145,3.165-3.129,8.279,0.034,11.425c3.165,3.145,8.28,3.13,11.425-0.034   c42.563-42.822,99.157-66.407,159.359-66.407c98.135,0,186.604,65.632,215.144,159.606c0.651,2.144,2.164,3.921,4.176,4.908   c2.011,0.986,4.341,1.09,6.436,0.292l11.989-4.577l-9.893,62.11l-48.764-39.717l14.557-5.556c3.929-1.499,6.05-5.762,4.877-9.8   c-12.227-42.117-38.283-80.058-73.366-106.837c-36.26-27.676-79.539-42.304-125.156-42.304   c-91.838,0-172.491,60.673-198.291,148.312H38.891c8.054-29.83,22.426-58.113,41.9-82.318c2.798-3.476,2.246-8.562-1.231-11.359   c-3.477-2.795-8.562-2.246-11.359,1.231c-23.151,28.777-39.577,62.935-47.499,98.782c-0.528,2.391,0.056,4.893,1.59,6.801   c1.534,1.909,3.85,3.02,6.3,3.02h35.255c3.673,0,6.884-2.479,7.815-6.032c21.946-83.771,97.749-142.28,184.337-142.28   c81.765,0,155.059,53.254,180.794,130.394l-20.527,7.836c-2.695,1.029-4.637,3.417-5.095,6.265   c-0.458,2.848,0.639,5.724,2.875,7.547l70.477,57.401c1.464,1.192,3.273,1.815,5.103,1.815c0.969,0,1.947-0.174,2.88-0.531   c2.699-1.031,4.643-3.424,5.096-6.277l14.296-89.764C512.353,177.302,511.252,174.427,509.013,172.608z"/>
</g>
<g>
</g>
<g>
</g>
<g>
</g>
<g>
</g>
<g>
</g>
<g>
</g>
<g>
</g>
<g>
</g>
<g>
</g>
<g>
</g>
<g>
</g>
<g>
</g>
<g>
</g>
<g>
</g>
<g>
</g>
</svg>
